<svg width="18" height="18" viewBox="0 0 18 18" fill="none" xmlns="http://www.w3.org/2000/svg">
<path d="M7.99479 10.4998L6.20312 8.70817C6.05035 8.55539 5.8559 8.479 5.61979 8.479C5.38368 8.479 5.18924 8.55539 5.03646 8.70817C4.88368 8.86095 4.80729 9.05539 4.80729 9.2915C4.80729 9.52762 4.88368 9.72206 5.03646 9.87484L7.41146 12.2498C7.57812 12.4165 7.77257 12.4998 7.99479 12.4998C8.21701 12.4998 8.41146 12.4165 8.57812 12.2498L13.2865 7.5415C13.4392 7.38873 13.5156 7.19428 13.5156 6.95817C13.5156 6.72206 13.4392 6.52762 13.2865 6.37484C13.1337 6.22206 12.9392 6.14567 12.7031 6.14567C12.467 6.14567 12.2726 6.22206 12.1198 6.37484L7.99479 10.4998ZM9.16146 17.3332C8.00868 17.3332 6.92535 17.1143 5.91146 16.6765C4.89757 16.2387 4.01562 15.6451 3.26562 14.8957C2.51563 14.1457 1.92201 13.2637 1.48479 12.2498C1.04757 11.2359 0.828681 10.1526 0.828125 8.99984C0.828125 7.84706 1.04701 6.76373 1.48479 5.74984C1.92257 4.73595 2.51618 3.854 3.26562 3.104C4.01562 2.354 4.89757 1.76039 5.91146 1.32317C6.92535 0.885948 8.00868 0.667059 9.16146 0.666504C10.3142 0.666504 11.3976 0.885393 12.4115 1.32317C13.4253 1.76095 14.3073 2.35456 15.0573 3.104C15.8073 3.854 16.4012 4.73595 16.839 5.74984C17.2767 6.76373 17.4953 7.84706 17.4948 8.99984C17.4948 10.1526 17.2759 11.2359 16.8381 12.2498C16.4003 13.2637 15.8067 14.1457 15.0573 14.8957C14.3073 15.6457 13.4253 16.2396 12.4115 16.6773C11.3976 17.1151 10.3142 17.3337 9.16146 17.3332Z" fill="#25AE87"/>
</svg>
